<svg width="522" height="313" viewBox="0 0 522 313" fill="none" xmlns="http://www.w3.org/2000/svg">
<path d="M143.171 312.589L129.613 274.652C129.613 274.652 144.527 282.104 145.205 291.588C145.205 291.588 141.815 244.166 135.036 234.004C135.036 234.004 145.882 235.359 158.084 288.201C158.084 288.201 160.118 227.23 141.815 209.616C141.815 209.616 166.897 229.939 168.931 273.974V312.589H143.171Z" fill="#08605F"/>
<path d="M397.432 312.589L394.172 303.467C394.172 303.467 397.757 305.259 397.92 307.54C397.92 307.54 397.106 296.137 395.476 293.694C395.476 293.694 398.083 294.02 401.017 306.725C401.017 306.725 401.506 292.065 397.105 287.83C397.105 287.83 403.136 292.717 403.625 303.304V312.589L397.432 312.589Z" fill="#F2F2F2"/>
<path d="M337.039 234.134C369.955 234.134 396.638 207.468 396.638 174.574C396.638 141.679 369.955 115.013 337.039 115.013C304.124 115.013 277.441 141.679 277.441 174.574C277.441 207.468 304.124 234.134 337.039 234.134Z" fill="#F2F2F2"/>
<path d="M140.57 4.51831H0V82.5629H140.57V4.51831Z" fill="#F2F2F2"/>
<path d="M331.285 4.51831H190.715V82.5629H331.285V4.51831Z" fill="#F2F2F2"/>
<path d="M522 4.51831H381.43V82.5629H522V4.51831Z" fill="#F2F2F2"/>
<path d="M361.35 312.803C361.256 312.649 359.032 308.938 358.261 301.232C357.553 294.161 358.008 282.243 364.193 265.619C375.909 234.126 361.492 208.715 361.345 208.462L362.056 208.05C362.094 208.114 365.814 214.593 368.011 224.909C370.915 238.586 369.858 252.807 364.963 265.906C353.267 297.345 361.963 312.229 362.052 312.375L361.35 312.803Z" fill="#3F3D56"/>
<path d="M356.768 206.613C359.72 206.613 362.112 204.222 362.112 201.273C362.112 198.324 359.72 195.933 356.768 195.933C353.817 195.933 351.425 198.324 351.425 201.273C351.425 204.222 353.817 206.613 356.768 206.613Z" fill="#00A5CF"/>
<path d="M373.62 226.329C376.571 226.329 378.964 223.939 378.964 220.99C378.964 218.04 376.571 215.65 373.62 215.65C370.669 215.65 368.277 218.04 368.277 220.99C368.277 223.939 370.669 226.329 373.62 226.329Z" fill="#3F3D56"/>
<path d="M362.112 239.474C365.063 239.474 367.455 237.083 367.455 234.134C367.455 231.185 365.063 228.794 362.112 228.794C359.161 228.794 356.769 231.185 356.769 234.134C356.769 237.083 359.161 239.474 362.112 239.474Z" fill="#00A5CF"/>
<path d="M376.087 250.564C379.038 250.564 381.43 248.174 381.43 245.224C381.43 242.275 379.038 239.885 376.087 239.885C373.136 239.885 370.743 242.275 370.743 245.224C370.743 248.174 373.136 250.564 376.087 250.564Z" fill="#00A5CF"/>
<path d="M358.002 267.816C360.953 267.816 363.345 265.425 363.345 262.476C363.345 259.527 360.953 257.136 358.002 257.136C355.051 257.136 352.658 259.527 352.658 262.476C352.658 265.425 355.051 267.816 358.002 267.816Z" fill="#3F3D56"/>
<path d="M364.578 313C364.578 313 359.235 299.856 375.265 289.997L364.578 313Z" fill="#08605F"/>
<path d="M358.007 312.761C358.007 312.761 355.575 298.784 336.753 298.903L358.007 312.761Z" fill="#08605F"/>
<path d="M140.365 0H0.205536V6.98294H140.365V0Z" fill="#3F3D56"/>
<path d="M331.491 0H190.92V6.98294H331.491V0Z" fill="#3F3D56"/>
<path d="M521.794 0H381.635V6.98294H521.794V0Z" fill="#3F3D56"/>
<path d="M36.1701 17.8682H10.6866V35.9417H36.1701V17.8682Z" fill="white"/>
<path d="M129.883 17.8682H59.5984V19.922H129.883V17.8682Z" fill="white"/>
<path d="M129.883 26.0833H59.5984V28.1371H129.883V26.0833Z" fill="white"/>
<path d="M129.883 34.2986H59.5984V36.3524H129.883V34.2986Z" fill="white"/>
<path d="M226.885 17.8682H201.402V35.9417H226.885V17.8682Z" fill="white"/>
<path d="M320.598 17.8682H250.313V19.922H320.598V17.8682Z" fill="white"/>
<path d="M320.598 26.0833H250.313V28.1371H320.598V26.0833Z" fill="white"/>
<path d="M320.598 34.2986H250.313V36.3524H320.598V34.2986Z" fill="white"/>
<path d="M417.6 17.8682H392.117V35.9417H417.6V17.8682Z" fill="white"/>
<path d="M511.313 17.8682H441.028V19.922H511.313V17.8682Z" fill="white"/>
<path d="M511.313 26.0833H441.028V28.1371H511.313V26.0833Z" fill="white"/>
<path d="M511.313 34.2986H441.028V36.3524H511.313V34.2986Z" fill="white"/>
<path d="M23.4283 35.3255C27.9684 35.3255 31.6488 31.6474 31.6488 27.1102C31.6488 22.5731 27.9684 18.895 23.4283 18.895C18.8883 18.895 15.2079 22.5731 15.2079 27.1102C15.2079 31.6474 18.8883 35.3255 23.4283 35.3255Z" fill="#00A5CF"/>
<path d="M404.858 35.3255C409.398 35.3255 413.079 31.6474 413.079 27.1102C413.079 22.5731 409.398 18.895 404.858 18.895C400.318 18.895 396.638 22.5731 396.638 27.1102C396.638 31.6474 400.318 35.3255 404.858 35.3255Z" fill="#00A5CF"/>
<path d="M65.6699 82.563H64.8478V85.0276H65.6699V82.563Z" fill="#3F3D56"/>
<path d="M65.6699 183.61H64.8478V178.681H65.6699V183.61ZM65.6699 173.752H64.8478V168.823H65.6699V173.752ZM65.6699 163.894H64.8478V158.965H65.6699V163.894ZM65.6699 154.036H64.8478V149.106H65.6699V154.036ZM65.6699 144.177H64.8478V139.248H65.6699V144.177ZM65.6699 134.319H64.8478V129.39H65.6699V134.319ZM65.6699 124.461H64.8478V119.532H65.6699V124.461ZM65.6699 114.602H64.8478V109.673H65.6699V114.602ZM65.6699 104.744H64.8478V99.815H65.6699V104.744ZM65.6699 94.8859H64.8478V89.9568H65.6699V94.8859Z" fill="#3F3D56"/>
<path d="M67.7249 191.415H64.8477V188.54H65.6696V190.593H67.7249V191.415Z" fill="#3F3D56"/>
<path d="M444.294 191.415H439.339V190.593H444.294V191.415ZM434.385 191.415H429.43V190.593H434.385V191.415ZM424.475 191.415H419.52V190.593H424.475V191.415ZM414.565 191.415H409.61V190.593H414.565V191.415ZM404.656 191.415H399.7V190.593H404.656V191.415ZM394.746 191.415H389.791V190.593H394.746V191.415ZM384.836 191.415H379.881V190.593H384.836V191.415ZM374.926 191.415H369.971V190.593H374.926V191.415ZM365.017 191.415H360.062V190.593H365.017V191.415ZM355.107 191.415H350.152V190.593H355.107L355.107 191.415ZM345.197 191.415H340.242V190.593H345.197V191.415ZM335.287 191.415H330.333V190.593H335.287V191.415ZM325.378 191.415H320.423V190.593H325.378V191.415ZM315.468 191.415H310.513V190.593H315.468V191.415ZM305.558 191.415H300.603V190.593H305.558V191.415ZM295.648 191.415H290.694V190.593H295.648V191.415ZM285.739 191.415H280.784V190.593H285.739V191.415ZM275.829 191.415H270.874V190.593H275.829V191.415ZM265.919 191.415H260.964V190.593H265.919V191.415ZM256.01 191.415H251.055V190.593H256.01V191.415ZM246.1 191.415H241.145V190.593H246.1V191.415ZM236.19 191.415H231.235V190.593H236.19V191.415ZM226.281 191.415H221.326V190.593H226.281V191.415ZM216.371 191.415H211.416V190.593H216.371V191.415ZM206.461 191.415H201.506V190.593H206.461V191.415ZM196.551 191.415H191.596V190.593H196.551V191.415ZM186.642 191.415H181.687V190.593H186.642V191.415ZM176.732 191.415H171.777V190.593H176.732V191.415ZM166.822 191.415H161.867V190.593H166.822V191.415ZM156.912 191.415H151.958V190.593H156.912V191.415ZM147.003 191.415H142.048V190.593H147.003V191.415ZM137.093 191.415H132.138V190.593H137.093V191.415ZM127.183 191.415H122.229V190.593H127.183V191.415ZM117.274 191.415H112.319V190.593H117.274V191.415ZM107.364 191.415H102.409V190.593H107.364V191.415ZM97.4542 191.415H92.4994V190.593H97.4542V191.415ZM87.5444 191.415H82.5897V190.593H87.5444V191.415ZM77.6347 191.415H72.6799V190.593H77.6347L77.6347 191.415Z" fill="#3F3D56"/>
<path d="M452.126 191.415H449.249V190.593H451.304V188.54H452.126V191.415Z" fill="#3F3D56"/>
<path d="M452.126 183.61H451.304V178.681H452.126V183.61ZM452.126 173.752H451.304V168.823H452.126V173.752ZM452.126 163.894H451.304V158.965H452.126V163.894ZM452.126 154.036H451.304V149.106H452.126V154.036ZM452.126 144.177H451.304V139.248H452.126V144.177ZM452.126 134.319H451.304V129.39H452.126V134.319ZM452.126 124.461H451.304V119.532H452.126V124.461ZM452.126 114.602H451.304V109.673H452.126V114.602ZM452.126 104.744H451.304V99.815H452.126V104.744ZM452.126 94.8859H451.304V89.9568H452.126V94.8859Z" fill="#3F3D56"/>
<path d="M452.126 82.563H451.304V85.0276H452.126V82.563Z" fill="#3F3D56"/>
<path d="M331.285 166.358H190.715V312.589H331.285V166.358Z" fill="#3F3D56"/>
<path d="M226.885 185.458H201.402V203.532H226.885V185.458Z" fill="white"/>
<path d="M320.598 185.458H250.313V187.512H320.598V185.458Z" fill="white"/>
<path d="M320.598 193.674H250.313V195.728H320.598V193.674Z" fill="white"/>
<path d="M320.598 201.889H250.313V203.943H320.598V201.889Z" fill="white"/>
<path d="M226.885 250.564H201.402V268.638H226.885V250.564Z" fill="white"/>
<path d="M320.598 250.564H250.313V252.618H320.598V250.564Z" fill="white"/>
<path d="M320.598 258.78H250.313V260.833H320.598V258.78Z" fill="white"/>
<path d="M320.598 266.995H250.313V269.048H320.598V266.995Z" fill="white"/>
<path d="M214.251 199.067L205.528 187.444L207.595 185.895L214.701 195.364L232.814 180.703L234.449 182.701L214.251 199.067Z" fill="#00A5CF"/>
<path d="M214.251 263.556L205.528 251.933L207.595 250.385L214.701 259.853L232.814 245.193L234.449 247.191L214.251 263.556Z" fill="#00A5CF"/>
<path d="M278.694 87.0812C278.694 87.0812 292.257 81.1747 298.628 87.414C304.999 93.6534 281.571 91.5996 278.694 87.0812Z" fill="#3F3D56"/>
<path d="M302.115 59.0694C297.557 51.3724 288.539 51.0137 288.539 51.0137C288.539 51.0137 279.751 49.8906 274.114 61.6133C268.86 72.5397 261.608 83.0895 272.946 85.6473L274.994 79.2769L276.263 86.1215C277.877 86.2376 279.497 86.2652 281.114 86.2044C293.257 85.8126 304.82 86.319 304.448 81.9646C303.953 76.1759 306.501 66.4754 302.115 59.0694Z" fill="#2F2E41"/>
<path d="M308.493 198.603C308.493 198.603 302.739 209.283 299.039 209.283C295.34 209.283 295.751 216.266 296.573 217.909C297.395 219.552 299.45 223.249 296.162 228.589C295.014 230.454 295.219 232.57 295.973 234.533C298.085 240.036 306.299 238.369 306.037 232.481C306.034 232.417 306.031 232.351 306.027 232.285C305.616 225.713 308.904 215.444 312.192 212.98C315.48 210.515 318.357 203.943 318.357 203.943L308.493 198.603Z" fill="#FFB8B8"/>
<path d="M269.035 196.138C269.035 196.138 274.789 206.818 278.488 206.818C282.187 206.818 281.776 213.801 280.954 215.444C280.132 217.087 278.077 220.784 281.365 226.124C282.514 227.989 282.308 230.105 281.555 232.069C279.443 237.571 271.228 235.904 271.49 230.017C271.493 229.952 271.497 229.887 271.501 229.821C271.912 223.249 268.624 212.98 265.335 210.515C262.047 208.051 259.17 201.478 259.17 201.478L269.035 196.138Z" fill="#FFB8B8"/>
<path d="M273.556 143.561L271.09 148.901C271.09 148.901 234.92 160.813 238.208 174.779C241.496 188.745 257.526 210.515 259.992 209.693C262.458 208.872 275.611 206.407 276.022 199.424C276.433 192.441 266.568 180.119 266.568 180.119L280.132 167.796L299.87 167.385L316.713 180.119C316.713 180.119 299.039 195.728 306.849 201.889C314.658 208.05 326.167 212.158 327.811 209.693C329.455 207.229 347.951 170.671 345.074 167.385C342.197 164.099 313.014 151.776 313.014 151.776L305.205 140.686L274.789 139.042L273.556 143.561Z" fill="#2F2E41"/>
<path d="M280.954 75.7854C280.954 75.7854 283.009 89.3405 278.899 90.9836C274.789 92.6266 287.12 99.6096 287.12 99.6096H294.107L298.628 90.1621C298.628 90.1621 294.518 82.7684 296.984 75.7854C299.45 68.8025 280.954 75.7854 280.954 75.7854Z" fill="#FFB8B8"/>
<path opacity="0.1" d="M280.954 75.7854C280.954 75.7854 283.009 89.3405 278.899 90.9836C274.789 92.6266 287.12 99.6096 287.12 99.6096H294.107L298.628 90.1621C298.628 90.1621 294.518 82.7684 296.984 75.7854C299.45 68.8025 280.954 75.7854 280.954 75.7854Z" fill="black"/>
<path d="M278.077 87.2869C278.077 87.2869 282.598 92.216 283.42 93.0375C284.243 93.8591 287.942 98.3774 295.751 91.8052C303.561 85.2331 304.383 93.0375 304.383 93.0375V142.329C304.383 142.329 297.806 139.454 292.463 142.329C287.12 145.204 276.022 141.507 276.022 141.507L273.967 90.573L278.077 87.2869Z" fill="white"/>
<path d="M281.096 87.2869C281.096 87.2869 277.255 85.6438 273.967 87.2869C270.679 88.9299 259.17 97.1451 259.992 100.842C260.814 104.539 271.501 130.417 264.102 142.74C256.704 155.062 255.471 158.349 255.471 158.349L273.556 148.901C273.556 148.901 287.531 140.275 286.298 134.935C285.065 129.595 281.096 87.2869 281.096 87.2869Z" fill="#00A5CF"/>
<path d="M297.4 87.2869C297.4 87.2869 306.027 88.1084 306.438 88.9299C306.849 89.7514 319.385 93.2429 318.563 96.9398C317.741 100.637 306.438 133.703 311.37 139.864C316.302 146.026 324.523 154.652 321.646 155.473C318.769 156.295 313.836 154.241 308.904 155.473C303.972 156.706 292.463 146.436 293.696 135.346C294.929 124.255 293.706 90.1622 297.4 87.2869Z" fill="#00A5CF"/>
<path d="M276.844 165.742V169.85C276.844 169.85 274.789 179.297 281.365 178.886C287.942 178.476 283.832 167.385 283.832 167.385L283.421 163.688L276.844 165.742Z" fill="#FFB8B8"/>
<path d="M295.34 166.153C295.34 166.153 290.819 175.6 295.34 176.422C299.861 177.243 303.15 171.082 303.15 169.439C303.15 167.796 295.34 166.153 295.34 166.153Z" fill="#FFB8B8"/>
<path d="M301.3 71.8833C301.754 71.8833 302.122 71.1476 302.122 70.2402C302.122 69.3328 301.754 68.5972 301.3 68.5972C300.846 68.5972 300.478 69.3328 300.478 70.2402C300.478 71.1476 300.846 71.8833 301.3 71.8833Z" fill="#FFB8B8"/>
<path d="M277.05 71.8833C277.504 71.8833 277.872 71.1476 277.872 70.2402C277.872 69.3328 277.504 68.5972 277.05 68.5972C276.596 68.5972 276.228 69.3328 276.228 70.2402C276.228 71.1476 276.596 71.8833 277.05 71.8833Z" fill="#FFB8B8"/>
<path d="M308.493 92.6265C308.493 92.6265 318.769 92.6265 318.357 96.7341C317.946 100.842 304.383 171.493 304.383 171.493C304.383 171.493 298.628 166.153 293.696 167.385L308.493 92.6265Z" fill="#00A5CF"/>
<path d="M268.624 93.8589C268.624 93.8589 258.348 95.9127 258.348 102.074C258.348 108.236 273.145 167.385 275.2 167.385C277.255 167.385 285.065 166.153 285.065 164.099C285.065 162.045 268.624 93.8589 268.624 93.8589Z" fill="#00A5CF"/>
<path opacity="0.2" d="M270.884 105.976L280.132 142.12C280.132 142.12 275.817 110.495 270.884 105.976Z" fill="black"/>
<path opacity="0.2" d="M306.856 100.898L297.503 148.153C297.503 148.153 300.492 103.624 306.856 100.898Z" fill="black"/>
<path d="M289.175 82.3576C295.758 82.3576 301.094 77.0244 301.094 70.4455C301.094 63.8667 295.758 58.5334 289.175 58.5334C282.592 58.5334 277.255 63.8667 277.255 70.4455C277.255 77.0244 282.592 82.3576 289.175 82.3576Z" fill="#FFB8B8"/>
<path d="M300.099 58.3274L291.19 53.6636L278.887 55.5712L276.341 66.807L282.678 66.5636L284.448 62.4358V66.4956L287.372 66.383L289.069 59.8111L290.13 66.807L300.524 66.5953L300.099 58.3274Z" fill="#2F2E41"/>
</svg>
