<svg width="320" height="83" viewBox="0 0 320 83" fill="none" xmlns="http://www.w3.org/2000/svg">
<path d="M0.921875 83V0.96875H11.1172V83H0.921875ZM16.9766 47.4922V38.2344H27.6406C35.9219 38.0781 40.1016 33.4688 40.1797 24.4062C40.0234 15.1094 35.2969 10.4219 26 10.3438H16.9766V0.96875H27.875C39.2031 1.35938 46.1953 6.08594 48.8516 15.1484C49.6328 17.7266 50.0234 20.5391 50.0234 23.5859C49.9453 32.6484 47.25 39.0156 41.9375 42.6875C46.4688 45.1094 49.2031 49.5234 50.1406 55.9297C50.2188 56.4766 50.2969 57.0234 50.375 57.5703L52.3672 83H42.7578L41 62.1406C40.375 55.4219 38.6562 51.125 35.8438 49.25C33.9688 48 31.4297 47.4141 28.2266 47.4922H16.9766ZM59.9844 65.6562V36.5938C60.0625 33 61.7812 29.4453 65.1406 25.9297C69.2031 21.7891 74.125 19.6797 79.9062 19.6016V28.8594C76.1562 28.8594 73.2266 30.5 71.1172 33.7812C70.2578 35.1875 69.8281 36.4766 69.8281 37.6484V45.6172H96.0781V37.6484C96.0781 34.1328 94.2812 31.5547 90.6875 29.9141C89.0469 29.1328 87.3672 28.7422 85.6484 28.7422V19.6016C91.0391 19.6016 95.8438 21.5156 100.062 25.3438C103.578 28.7031 105.375 32.4141 105.453 36.4766V55.1094H69.8281V65.6562C69.8281 67.8438 71.0781 69.875 73.5781 71.75C75.6094 73.1562 77.7578 73.8594 80.0234 73.8594V83C72.9141 83 67.3281 80.1094 63.2656 74.3281C61.0781 71.2812 59.9844 68.3906 59.9844 65.6562ZM85.6484 83V73.7422C90.3359 73.7422 93.8516 71.7109 96.1953 67.6484C96.6641 66.7891 97.0156 65.9688 97.25 65.1875L105.57 68.2344C104.164 73.625 100.961 77.6875 95.9609 80.4219C92.7578 82.1406 89.3203 83 85.6484 83Z" fill="#229897"/>
<path d="M114.711 83V36.7109C114.711 32.3359 116.352 28.4297 119.633 24.9922C123.305 21.2422 127.953 19.3672 133.578 19.3672V28.9766C129.359 28.9766 126.586 30.8125 125.258 34.4844C124.867 35.6562 124.672 36.8281 124.672 38V83H114.711ZM138.852 28.9766V19.3672C144.789 19.5234 149.477 21.5938 152.914 25.5781C156.82 21.5938 161.508 19.5234 166.977 19.3672V28.9766C162.758 28.9766 159.945 30.8125 158.539 34.4844C158.148 35.5781 157.953 36.75 157.953 38V83H147.992V38C147.992 34.0156 146.312 31.2813 142.953 29.7969C141.703 29.25 140.336 28.9766 138.852 28.9766ZM172.25 28.9766V19.3672C179.672 19.3672 185.18 22.4141 188.773 28.5078C190.414 31.3203 191.234 34.0547 191.234 36.7109V83H181.273V38C181.273 33.7031 179.477 30.8906 175.883 29.5625C174.789 29.1719 173.578 28.9766 172.25 28.9766ZM201.078 10.9297C201.078 8.50781 202.211 6.78906 204.477 5.77344C205.258 5.46094 206.039 5.30469 206.82 5.30469C209.164 5.30469 210.883 6.39844 211.977 8.58594C212.289 9.36719 212.445 10.1484 212.445 10.9297C212.445 13.2734 211.352 14.9922 209.164 16.0859C208.383 16.3984 207.602 16.5547 206.82 16.5547C204.398 16.5547 202.641 15.4609 201.547 13.2734C201.234 12.4922 201.078 11.7109 201.078 10.9297ZM201.898 83V21.2422H211.742V83H201.898ZM222.289 83V36.7109C222.289 32.9609 223.969 29.2891 227.328 25.6953C231.469 21.4766 236.586 19.3672 242.68 19.3672V29.0938C238.695 29.0938 235.648 30.6562 233.539 33.7812C232.68 35.1094 232.25 36.4766 232.25 37.8828V83H222.289ZM247.836 29.0938V19.3672C255.102 19.3672 260.766 22.2969 264.828 28.1562C267.016 31.2031 268.109 34.0547 268.109 36.7109V83H258.148V37.8828C258.148 35.4609 256.938 33.3125 254.516 31.4375C252.562 29.875 250.336 29.0938 247.836 29.0938ZM276.078 65.6562V36.7109C276.156 32.4922 278.07 28.5859 281.82 24.9922C285.492 21.4766 289.789 19.7188 294.711 19.7188H303.969V29.2109H294.828C291.625 29.2109 289.008 30.6562 286.977 33.5469C286.117 34.875 285.688 36.125 285.688 37.2969V65.4219C285.688 67.9219 287.094 70.0703 289.906 71.8672C291.547 72.9609 293.227 73.5078 294.945 73.5078H303.969V83H295.062C288.109 83 282.719 79.9922 278.891 73.9766C277.016 71.0078 276.078 68.2344 276.078 65.6562ZM309.594 83L309.711 0.148438H319.789V83H309.594Z" fill="#08605F"/>
</svg>
